<svg width="0" height="0" class="hidden">
  <symbol version="1.0" xmlns="http://www.w3.org/2000/svg" preserveAspectRatio="xMidYMid meet" viewBox="0 0 512.000000 512.000000" id="burger">
    <g transform="translate(0.000000,512.000000) scale(0.100000,-0.100000)" stroke="none">
      <path d="M2320 4803 c-635 -44 -1098 -210 -1450 -516 -305 -266 -502 -668
-550 -1117 -22 -204 -14 -182 -73 -209 -30 -14 -78 -50 -113 -85 -153 -154
-176 -379 -58 -563 l34 -53 -34 -53 c-145 -226 -70 -518 164 -641 58 -31 70
-41 70 -62 0 -88 65 -304 131 -437 164 -330 450 -576 802 -691 193 -63 148
-61 1317 -61 983 0 1072 1 1153 18 552 112 969 524 1081 1069 9 43 16 88 16
102 0 21 10 30 58 53 32 16 83 54 117 88 154 154 177 377 59 562 l-34 53 34
53 c118 185 95 408 -59 562 -33 34 -83 72 -112 85 -59 27 -51 6 -73 210 -111
1049 -944 1651 -2265 1638 -93 -1 -190 -3 -215 -5z m515 -303 c484 -39 856
-161 1135 -371 151 -114 296 -290 384 -467 75 -150 141 -394 153 -569 l6 -83
-1953 0 -1953 0 6 83 c25 361 185 711 430 943 290 275 689 420 1282 467 95 8
400 6 510 -3z m1905 -1810 c45 -23 80 -80 80 -131 0 -46 -39 -108 -82 -130
-36 -18 -96 -19 -2179 -19 l-2141 0 -40 22 c-101 57 -102 194 -2 254 l39 24
2143 0 c2128 0 2143 0 2182 -20z m0 -600 c45 -23 80 -80 80 -131 0 -46 -39
-108 -82 -130 -33 -17 -61 -19 -245 -20 -309 0 -378 -25 -538 -191 -87 -90
-119 -108 -195 -108 -74 0 -103 17 -206 118 -138 138 -236 182 -399 181 -157
-1 -268 -53 -400 -191 -87 -90 -119 -108 -195 -108 -74 0 -103 17 -206 118
-138 138 -236 182 -399 181 -157 -1 -268 -53 -400 -191 -89 -92 -118 -108
-203 -108 -68 0 -110 25 -212 124 -157 154 -221 176 -524 176 -187 0 -201 1
-238 22 -101 57 -102 194 -2 254 l39 24 2143 0 c2128 0 2143 0 2182 -20z
m-3902 -595 c20 -9 80 -58 132 -109 134 -132 235 -176 395 -175 155 1 271 55
392 183 84 90 128 116 193 116 87 0 115 -15 205 -108 134 -139 244 -191 405
-191 159 0 274 53 397 183 84 90 128 116 193 116 87 0 115 -15 205 -108 134
-139 244 -191 405 -191 159 0 274 53 397 183 99 106 122 116 249 116 l103 0
-6 -37 c-10 -69 -55 -197 -98 -283 -135 -268 -380 -464 -683 -548 l-97 -27
-1065 0 -1065 0 -100 28 c-304 85 -548 281 -683 552 -41 82 -85 210 -95 278
l-6 37 95 0 c63 0 107 -5 132 -15z"></path>
      <path d="M2188 4189 c-43 -22 -78 -81 -78 -129 0 -50 35 -107 80 -130 21 -11
53 -20 70 -20 76 0 150 74 150 150 0 50 -35 107 -80 130 -49 25 -94 25 -142
-1z"></path>
      <path d="M2788 3889 c-43 -22 -78 -81 -78 -129 0 -50 35 -107 80 -130 21 -11
53 -20 70 -20 17 0 49 9 70 20 45 23 80 80 80 130 0 50 -35 107 -80 130 -49
25 -94 25 -142 -1z"></path>
      <path d="M1588 3589 c-43 -22 -78 -81 -78 -129 0 -50 35 -107 80 -130 21 -11
53 -20 70 -20 76 0 150 74 150 150 0 50 -35 107 -80 130 -49 25 -94 25 -142
-1z"></path>
      <path d="M3388 3589 c-43 -22 -78 -81 -78 -129 0 -50 35 -107 80 -130 21 -11
53 -20 70 -20 50 0 107 35 130 80 11 21 20 53 20 70 0 50 -35 107 -80 130 -49
25 -94 25 -142 -1z"></path>
    </g>
  </symbol>
  <symbol version="1.0" xmlns="http://www.w3.org/2000/svg" preserveAspectRatio="xMidYMid meet" viewBox="0 0 512.000000 512.000000" id="cake">
    <g transform="translate(0.000000,512.000000) scale(0.100000,-0.100000)" stroke="none">
      <path d="M1937 4690 c-218 -37 -450 -175 -558 -332 -3 -5 -32 7 -65 27 -209
126 -478 95 -617 -71 -73 -86 -106 -214 -88 -333 6 -38 16 -82 22 -98 10 -26
7 -30 -43 -72 -268 -224 -442 -510 -519 -856 -21 -95 -22 -127 -26 -626 -5
-584 -5 -580 59 -619 19 -11 51 -20 73 -20 58 0 152 -27 204 -57 25 -14 73
-52 108 -85 139 -129 272 -187 448 -195 195 -9 345 47 500 187 102 92 163 125
263 142 136 23 255 -18 375 -130 143 -133 277 -191 453 -200 202 -9 359 52
519 202 112 105 245 150 376 128 91 -16 154 -48 236 -124 171 -155 333 -217
537 -205 165 9 296 67 433 189 39 36 99 79 132 97 l61 32 0 -421 c0 -330 -3
-428 -13 -453 -19 -44 -89 -105 -129 -112 -18 -3 -983 -4 -2144 -3 l-2110 3
-36 24 c-19 13 -46 40 -59 59 -23 34 -24 44 -29 241 -4 146 -9 213 -18 229
-19 32 -93 65 -129 56 -52 -13 -85 -35 -99 -69 -17 -42 -20 -341 -3 -431 31
-173 163 -314 334 -359 52 -13 306 -15 2175 -15 1869 0 2123 2 2175 15 172 45
306 192 334 365 12 70 16 1854 5 1946 -4 30 -15 63 -28 78 -15 19 -112 66
-341 165 -176 76 -747 324 -1270 551 -522 227 -955 414 -961 417 -7 3 -2 32
17 88 94 279 32 497 -171 600 -96 49 -251 67 -383 45z m264 -268 c99 -61 103
-194 9 -387 -54 -112 -134 -214 -225 -288 -64 -51 -224 -137 -257 -137 -17 0
-18 5 -13 58 17 146 -42 350 -142 490 -15 22 -14 24 59 96 130 126 306 199
459 193 56 -3 85 -9 110 -25z m-1050 -247 c122 -49 226 -156 280 -285 19 -46
23 -74 23 -171 1 -143 -3 -149 -88 -149 -261 1 -554 314 -496 531 14 51 33 76
75 96 41 19 129 10 206 -22z m2170 -865 c536 -232 981 -426 989 -431 9 -5
-834 -9 -1989 -9 l-2004 0 7 49 c27 207 204 508 387 661 l49 42 79 -75 c181
-173 384 -245 661 -234 148 6 252 27 378 78 141 56 229 115 347 235 61 61 113
109 116 108 3 -2 444 -193 980 -424z m1499 -1033 l0 -342 -72 -23 c-97 -30
-188 -86 -282 -171 -88 -80 -154 -115 -247 -131 -138 -24 -263 21 -398 144
-93 85 -201 145 -311 172 -99 25 -282 15 -376 -20 -101 -37 -150 -67 -238
-144 -43 -37 -97 -80 -119 -95 -94 -63 -249 -78 -362 -36 -74 27 -102 46 -187
125 -83 78 -187 136 -292 165 -68 18 -100 21 -201 17 -189 -7 -297 -53 -455
-194 -130 -116 -240 -156 -376 -134 -91 15 -161 50 -237 119 -107 97 -198 152
-309 187 l-58 18 0 343 0 343 2260 0 2260 0 0 -343z"></path>
    </g>
  </symbol>
  <symbol  version="1.1" xmlns="http://www.w3.org/2000/svg" viewBox="0 0 32 32" id="email">
    <title>envelope</title>
    <path d="M28 4.25h-24c-1.518 0.002-2.748 1.232-2.75 2.75v18c0.002 1.518 1.232 2.748 2.75 2.75h24c1.518-0.002 2.748-1.232 2.75-2.75v-18c-0.002-1.518-1.232-2.748-2.75-2.75h-0zM4 5.75h24c0.563 0.005 1.036 0.386 1.18 0.904l0.002 0.009-13.182 9.416-13.182-9.416c0.146-0.527 0.619-0.908 1.181-0.913h0.001zM28 26.25h-24c-0.69-0.001-1.249-0.56-1.25-1.25v-16.543l12.814 9.153c0.014 0.010 0.032 0.006 0.046 0.015 0.108 0.073 0.24 0.118 0.382 0.123l0.001 0 0.005 0.002h0.002l0.005-0.002c0.143-0.005 0.275-0.051 0.386-0.125l-0.003 0.002c0.014-0.009 0.032-0.005 0.046-0.015l12.814-9.153v16.543c-0.001 0.69-0.56 1.249-1.25 1.25h-0z"></path>
  </symbol>
  <symbol  version="1.1" xmlns="http://www.w3.org/2000/svg" viewBox="0 0 32 32" id="heart">
    <path d="M8.999 3.567c0.98 0 2.753 0.469 5.628 3.301l1.425 1.403 1.404-1.426c1.996-2.028 4.12-3.288 5.543-3.288 1.919 0 3.432 0.656 4.907 2.128 1.39 1.386 2.156 3.23 2.156 5.191 0.001 1.962-0.764 3.807-2.169 5.209-0.114 0.116-6.156 6.634-11.218 12.097-0.238 0.227-0.511 0.26-0.656 0.26-0.143 0-0.412-0.032-0.65-0.253-1.233-1.372-10.174-11.313-11.213-12.351-1.391-1.388-2.157-3.233-2.157-5.194s0.766-3.804 2.158-5.192c1.353-1.352 2.937-1.885 4.842-1.885zM8.999 1.567c-2.392 0-4.5 0.715-6.255 2.469-3.659 3.649-3.659 9.566 0 13.217 1.045 1.045 11.183 12.323 11.183 12.323 0.578 0.578 1.336 0.865 2.093 0.865s1.512-0.287 2.091-0.865c0 0 11.090-11.97 11.208-12.089 3.657-3.652 3.657-9.57 0-13.219-1.816-1.813-3.845-2.712-6.319-2.712-2.364 0-5 1.885-6.969 3.885-2.031-2-4.585-3.874-7.031-3.874v0z"></path>
  </symbol>
  <symbol fill="none" xmlns="http://www.w3.org/2000/svg" viewBox="0 0 48 48" id="hotfood">
    <path fill-rule="evenodd" clip-rule="evenodd" d="M16.4906 12.1029C16.9695 12.3779 17.1347 12.9892 16.8597 13.4681C16.7595 13.6426 16.5909 13.9987 16.4648 14.423C16.3364 14.8548 16.2758 15.2775 16.3175 15.6168C16.3416 15.8133 16.3897 15.9177 16.4316 15.987C16.4845 16.0741 16.5524 16.1498 16.7046 16.3081C16.7101 16.3138 16.7157 16.3196 16.7214 16.3256C16.8587 16.4682 17.0693 16.687 17.246 16.9785C17.4409 17.2999 17.5779 17.6766 17.635 18.1418C17.7234 18.8612 17.5885 19.5818 17.4197 20.1493C17.2488 20.7242 17.0186 21.2231 16.8421 21.5303C16.567 22.0092 15.9558 22.1745 15.4769 21.8994C14.998 21.6244 14.8327 21.0132 15.1078 20.5343C15.208 20.3598 15.3765 20.0037 15.5027 19.5793C15.6311 19.1476 15.6916 18.7248 15.6499 18.3855C15.6258 18.189 15.5778 18.0846 15.5358 18.0153C15.483 17.9282 15.4151 17.8526 15.2628 17.6942C15.2574 17.6885 15.2518 17.6827 15.2461 17.6768C15.1087 17.5341 14.8981 17.3153 14.7214 17.0239C14.5265 16.7024 14.3895 16.3258 14.3324 15.8606C14.2441 15.1412 14.379 14.4205 14.5477 13.853C14.7186 13.2782 14.9489 12.7793 15.1254 12.472C15.4004 11.9931 16.0116 11.8278 16.4906 12.1029Z" fill="#333333"></path>
    <path fill-rule="evenodd" clip-rule="evenodd" d="M24.4906 12.1029C24.9695 12.3779 25.1347 12.9892 24.8597 13.4681C24.7595 13.6426 24.5909 13.9987 24.4648 14.423C24.3364 14.8548 24.2758 15.2775 24.3175 15.6168C24.3416 15.8133 24.3897 15.9177 24.4316 15.987C24.4845 16.0741 24.5524 16.1498 24.7046 16.3081C24.7101 16.3138 24.7157 16.3196 24.7214 16.3256C24.8587 16.4682 25.0693 16.687 25.246 16.9785C25.4409 17.2999 25.5779 17.6766 25.635 18.1418C25.7234 18.8612 25.5885 19.5818 25.4197 20.1493C25.2488 20.7242 25.0186 21.2231 24.8421 21.5303C24.567 22.0092 23.9558 22.1745 23.4769 21.8994C22.998 21.6244 22.8327 21.0132 23.1078 20.5343C23.208 20.3598 23.3765 20.0037 23.5027 19.5793C23.6311 19.1476 23.6916 18.7248 23.6499 18.3855C23.6258 18.189 23.5778 18.0846 23.5358 18.0153C23.483 17.9282 23.4151 17.8526 23.2628 17.6942C23.2574 17.6885 23.2518 17.6827 23.2461 17.6768C23.1087 17.5341 22.8981 17.3153 22.7214 17.0239C22.5265 16.7024 22.3895 16.3258 22.3324 15.8606C22.2441 15.1412 22.379 14.4205 22.5477 13.853C22.7186 13.2782 22.9489 12.7793 23.1254 12.472C23.4004 11.9931 24.0116 11.8278 24.4906 12.1029Z" fill="#333333"></path>
    <path fill-rule="evenodd" clip-rule="evenodd" d="M32.4906 12.1029C32.9695 12.3779 33.1347 12.9892 32.8597 13.4681C32.7595 13.6426 32.5909 13.9987 32.4648 14.423C32.3364 14.8548 32.2758 15.2775 32.3175 15.6168C32.3416 15.8133 32.3897 15.9177 32.4316 15.987C32.4845 16.0741 32.5524 16.1498 32.7046 16.3081C32.7101 16.3138 32.7157 16.3196 32.7214 16.3256C32.8587 16.4682 33.0693 16.687 33.246 16.9785C33.4409 17.2999 33.5779 17.6766 33.635 18.1418C33.7234 18.8612 33.5885 19.5818 33.4197 20.1493C33.2488 20.7242 33.0186 21.2231 32.8421 21.5303C32.567 22.0092 31.9558 22.1745 31.4769 21.8994C30.998 21.6244 30.8327 21.0132 31.1078 20.5343C31.208 20.3598 31.3765 20.0037 31.5027 19.5793C31.6311 19.1476 31.6916 18.7248 31.6499 18.3855C31.6258 18.189 31.5778 18.0846 31.5358 18.0153C31.483 17.9282 31.4151 17.8526 31.2628 17.6942C31.2574 17.6885 31.2518 17.6827 31.2461 17.6768C31.1087 17.5341 30.8981 17.3153 30.7214 17.0239C30.5265 16.7024 30.3895 16.3258 30.3324 15.8606C30.2441 15.1412 30.379 14.4205 30.5477 13.853C30.7186 13.2782 30.9489 12.7793 31.1254 12.472C31.4004 11.9931 32.0116 11.8278 32.4906 12.1029Z" fill="#333333"></path>
    <path fill-rule="evenodd" clip-rule="evenodd" d="M38 28L10 28C10 31.3137 12.6863 34 16 34H32C35.3137 34 38 31.3137 38 28ZM8 26V28C8 32.4183 11.5817 36 16 36H32C36.4183 36 40 32.4183 40 28V26H8Z" fill="#333333"></path>
    <path fill-rule="evenodd" clip-rule="evenodd" d="M4 27C4 26.4477 4.44772 26 5 26L43 26C43.5523 26 44 26.4477 44 27C44 27.5523 43.5523 28 43 28L5 28C4.44772 28 4 27.5523 4 27Z" fill="#333333"></path>
  </symbol>
  <symbol version="1.1" id="location" xmlns="http://www.w3.org/2000/svg" xmlns:xlink="http://www.w3.org/1999/xlink" x="0px" y="0px" enable-background="new 0 0 512 512" xml:space="preserve" viewBox="0 0 512 512">
    <path  opacity="1.000000" stroke="none" d="
M249.467606,513.000000 
	C236.467911,507.900879 231.537201,495.907074 224.737106,485.777557 
	C205.698624,457.417480 187.001389,428.828247 168.185867,400.318604 
	C147.544067,369.041809 126.904633,337.763428 106.294044,306.466034 
	C88.783691,279.876404 76.033051,251.238785 70.045609,219.868530 
	C66.359688,200.556747 66.492737,181.144318 69.303902,161.630173 
	C72.248894,141.187027 78.445412,121.848900 87.742050,103.545868 
	C95.812210,87.657524 106.083221,73.254822 118.368073,60.206612 
	C132.728760,44.953583 148.914246,32.081753 167.380814,22.413931 
	C186.552429,12.377010 206.757599,4.911732 228.530792,2.564768 
	C230.155899,2.389596 231.729721,1.738473 233.663696,1.154303 
	C250.020889,1.000000 266.041779,1.000000 282.531342,1.000000 
	C285.206146,4.286539 288.895660,2.684984 291.746826,3.248072 
	C307.928009,6.443735 323.309906,11.649360 338.326721,18.493513 
	C358.395905,27.640371 376.019562,40.193745 391.410736,55.692883 
	C417.243713,81.707031 434.501068,112.664444 442.318115,148.651321 
	C444.782562,159.996552 445.868561,171.467209 446.531372,183.098465 
	C448.155975,211.606293 441.040100,238.389145 430.596283,264.227356 
	C421.559326,286.584991 407.898529,306.598389 394.487000,326.645325 
	C369.020599,364.711334 343.934387,403.031921 318.730774,441.273468 
	C306.589417,459.695648 294.534790,478.175079 282.452026,496.635864 
	C278.233246,503.081543 273.398285,508.886993 266.171753,512.717773 
	C260.645081,513.000000 255.290146,513.000000 249.467606,513.000000 
M410.428619,249.048752 
	C411.770142,244.949295 413.098358,240.845428 414.455414,236.751114 
	C421.652466,215.037186 424.709412,192.893646 421.672089,170.055496 
	C419.650940,154.858124 416.053345,140.062943 409.912964,126.027351 
	C395.816345,93.805359 374.122284,67.951469 344.168640,49.293438 
	C318.385498,33.233219 290.230103,25.020229 259.865997,24.356298 
	C238.731689,23.894188 218.393509,27.805878 198.587173,35.084908 
	C178.352875,42.521210 160.642166,54.001003 144.768951,68.356865 
	C128.033386,83.492638 115.528503,101.748070 105.941109,122.140823 
	C97.723274,139.620468 93.181839,158.085754 91.483330,177.143036 
	C89.258980,202.100189 94.708702,226.068390 103.682945,249.155975 
	C110.306389,266.195770 119.379059,282.046021 129.506119,297.322052 
	C157.563492,339.644714 185.384521,382.124023 213.296753,424.542908 
	C224.516602,441.593994 235.623947,458.720642 247.017715,475.654694 
	C250.106873,480.245972 252.719208,485.276764 256.737579,489.220245 
	C258.404541,488.531830 259.059662,487.457947 259.808960,486.320190 
	C285.753540,446.926392 311.776337,407.584106 337.707031,368.181183 
	C356.059296,340.293945 374.860596,312.700500 392.487488,284.337463 
	C399.347229,273.299652 404.947723,261.645905 410.428619,249.048752 
z"></path>
    <path  opacity="1.000000" stroke="none" d="
M319.318237,110.627251 
	C338.479645,125.601357 350.638336,144.781540 355.494385,168.160507 
	C361.067352,194.991089 357.303528,220.488037 342.480438,243.988007 
	C325.775543,270.471313 301.537048,285.659332 270.951019,290.063385 
	C242.386154,294.176422 216.413651,286.832581 193.665329,268.796509 
	C172.597168,252.092560 160.346985,230.074936 156.969528,203.728394 
	C153.394424,175.840103 159.665329,149.859879 177.381851,127.540390 
	C194.435730,106.055740 216.929245,92.855789 244.158890,89.986786 
	C271.381287,87.118553 297.133575,92.404800 319.318237,110.627251 
M329.760132,165.613998 
	C329.491272,165.005463 329.201080,164.405365 328.956604,163.787186 
	C317.325439,134.376678 295.410217,117.267921 264.453796,113.697014 
	C237.387695,110.574867 214.211792,120.924644 197.244675,142.162689 
	C171.965073,173.805679 174.613403,215.983658 202.964279,244.489868 
	C218.867416,260.480133 238.563156,268.257904 261.466766,266.655670 
	C290.797516,264.603912 312.067657,249.897522 325.625610,224.342133 
	C335.408142,205.903015 336.226044,186.252136 329.760132,165.613998 
z"></path>
  </symbol>
  <symbol version="1.0" xmlns="http://www.w3.org/2000/svg" preserveAspectRatio="xMidYMid meet" viewBox="0 0 512.000000 512.000000" id="pancake">
    <g transform="translate(0.000000,512.000000) scale(0.100000,-0.100000)" stroke="none">
      <path d="M3044 4585 c-24 -24 -25 -30 -19 -98 8 -87 -5 -168 -41 -248 l-27
-59 -48 45 c-205 192 -437 218 -642 72 -91 -65 -196 -188 -237 -278 -10 -23
-15 -24 -108 -24 -88 0 -103 -3 -164 -32 -93 -44 -151 -100 -196 -191 -35 -72
-37 -81 -37 -172 0 -90 2 -101 36 -168 l35 -72 -387 0 c-373 0 -391 -1 -446
-22 -78 -29 -152 -103 -182 -183 -41 -109 -14 -253 62 -323 l25 -24 -38 -50
c-94 -124 -91 -283 6 -396 l36 -42 -36 -42 c-96 -112 -100 -265 -10 -390 l34
-48 -34 -47 c-75 -105 -84 -208 -31 -335 7 -17 -2 -18 -110 -18 -65 0 -136 -5
-159 -12 -55 -16 -138 -99 -154 -154 -28 -94 -8 -169 63 -239 63 -64 100 -75
252 -75 l119 0 52 -79 c66 -99 108 -192 133 -290 12 -48 27 -82 40 -93 20 -17
117 -18 1729 -18 1612 0 1709 1 1729 18 13 11 28 46 41 97 25 99 64 184 132
286 l52 79 119 0 c152 0 189 11 252 75 98 97 101 222 8 325 -59 66 -104 80
-256 80 -91 0 -117 3 -113 13 2 6 12 36 22 66 29 96 1 217 -68 288 l-31 32 33
37 c99 113 104 270 14 397 l-34 47 34 48 c90 125 85 283 -14 395 l-32 37 32
37 c53 60 74 117 74 203 0 97 -28 162 -95 225 -98 92 -83 90 -579 93 l-436 3
36 71 c33 67 35 78 35 167 0 87 -3 102 -32 163 -42 90 -100 150 -186 193 l-70
35 57 0 c33 0 81 -9 114 -21 31 -12 67 -23 79 -26 46 -11 102 53 87 99 -15 48
-113 92 -235 106 l-63 7 78 58 c85 64 104 95 85 139 -28 68 -84 65 -178 -8
-40 -31 -74 -55 -76 -53 -1 2 1 31 7 64 15 92 2 202 -28 231 -31 32 -77 32
-110 -1z m-366 -390 c56 -28 90 -56 162 -132 50 -53 89 -99 88 -103 -2 -4 -28
-27 -58 -51 -30 -25 -69 -67 -85 -95 l-30 -50 -23 28 c-40 48 -111 35 -131
-23 -21 -61 37 -122 97 -101 l27 9 1 -86 c0 -66 5 -97 22 -135 12 -27 22 -52
22 -55 0 -4 -13 -14 -29 -24 -26 -15 -62 -17 -294 -17 l-265 0 -26 35 c-100
130 -98 313 4 521 63 128 160 237 252 283 90 45 170 44 266 -4z m-732 -382
c-33 -158 -31 -259 8 -375 l23 -68 -24 -6 c-64 -16 -161 23 -215 86 -84 97
-77 222 17 315 52 53 94 72 159 74 37 1 38 0 32 -26z m1248 15 c55 -16 138
-99 154 -154 25 -84 9 -160 -46 -224 -51 -60 -104 -84 -182 -84 -78 0 -131 24
-182 84 -84 97 -77 222 17 315 70 71 145 90 239 63z m1116 -651 c48 -25 90
-89 90 -136 0 -43 -42 -114 -80 -136 -34 -19 -56 -20 -576 -25 l-541 -5 -49
-30 c-30 -19 -60 -49 -79 -79 -29 -47 -30 -56 -35 -184 -5 -131 -5 -134 -33
-158 -33 -28 -47 -30 -87 -9 -36 19 -38 29 -43 175 -3 133 -19 175 -87 233
-65 55 -92 59 -415 55 -322 -3 -318 -3 -388 -74 -59 -61 -67 -100 -67 -321 0
-193 0 -194 -25 -218 -26 -27 -70 -32 -96 -12 -35 26 -39 54 -39 240 0 211 -8
248 -68 311 -68 71 -64 70 -483 76 l-376 5 -40 27 c-100 66 -97 196 6 265 l34
23 1717 0 1717 0 43 -23z m-2735 -482 c24 -23 25 -29 25 -160 l0 -135 -373 0
c-372 0 -374 0 -418 23 -95 50 -117 168 -46 246 45 49 58 50 435 51 l353 0 24
-25z m1115 5 c26 -26 29 -43 32 -182 l3 -118 -322 0 -323 0 0 135 c0 131 1
137 25 160 l24 25 271 0 c256 0 271 -1 290 -20z m1621 -3 c110 -58 118 -195
15 -271 -25 -19 -45 -21 -249 -26 -252 -6 -269 -10 -336 -86 -54 -62 -61 -96
-61 -303 0 -184 -5 -212 -39 -238 -26 -20 -70 -15 -96 12 -25 24 -25 26 -25
216 0 230 -6 256 -75 324 -58 58 -102 75 -198 75 l-66 0 10 32 c5 18 9 79 9
136 0 96 2 105 25 127 l24 25 509 0 509 0 44 -23z m-2681 -487 c28 -68 129
-130 210 -130 81 0 182 62 210 130 l12 30 625 0 624 0 24 -25 c24 -23 25 -29
25 -160 l0 -135 -776 0 c-581 0 -787 -3 -818 -12 -55 -16 -138 -99 -154 -154
-7 -23 -12 -92 -12 -153 0 -105 -1 -113 -25 -136 -26 -27 -70 -32 -96 -12 -31
24 -39 56 -39 158 0 124 -12 167 -61 223 -67 76 -84 80 -336 86 -204 5 -224 7
-249 26 -45 33 -67 70 -71 121 -5 64 26 118 86 150 44 23 46 23 426 23 l383 0
12 -30z m2696 4 c44 -32 66 -68 71 -117 7 -63 -30 -127 -90 -156 -40 -19 -61
-21 -255 -21 l-212 0 0 135 c0 132 1 137 25 161 l25 25 204 -3 c188 -3 207 -5
232 -24z m-3071 -479 c23 -22 25 -31 25 -128 0 -58 3 -119 6 -136 l7 -31 -222
0 c-244 0 -268 4 -314 59 -48 57 -48 145 0 202 45 53 69 58 281 59 192 0 193
0 217 -25z m2135 -5 c7 -17 32 -48 56 -69 73 -64 162 -78 249 -37 51 23 108
78 120 116 7 21 10 21 245 18 223 -3 240 -4 266 -24 53 -39 69 -71 69 -134 0
-63 -16 -95 -69 -134 -27 -21 -32 -21 -1303 -24 l-1275 -2 6 22 c3 13 6 74 6
136 0 106 1 114 25 137 l24 25 784 0 785 0 12 -30z m1385 -475 c33 -32 33 -78
0 -110 l-24 -25 -2191 0 -2191 0 -24 25 c-16 15 -25 36 -25 55 0 19 9 40 25
55 l24 25 2191 0 2191 0 24 -25z m-496 -362 c-40 -69 -99 -210 -99 -238 0 -13
-172 -15 -1620 -15 -1536 0 -1620 1 -1620 18 0 26 -65 178 -104 244 l-35 58
1759 0 1759 0 -40 -67z"></path>
      <path d="M2444 4068 c-47 -22 -56 -86 -19 -123 48 -49 135 -15 135 52 -1 32
-15 55 -47 71 -26 14 -41 14 -69 0z"></path>
      <path d="M2303 3620 c-47 -19 -57 -87 -18 -125 46 -47 118 -23 131 42 5 27 1
37 -24 63 -31 31 -51 35 -89 20z"></path>
    </g>
  </symbol>
  <symbol version="1.0" xmlns="http://www.w3.org/2000/svg" preserveAspectRatio="xMidYMid meet" viewBox="0 0 512.000000 512.000000" id="slowcooker">
    <g transform="translate(0.000000,512.000000) scale(0.100000,-0.100000)" stroke="none">
      <path d="M2372 4840 c-186 -49 -322 -178 -322 -306 l0 -41 -139 -22 c-566 -89
-1043 -314 -1256 -591 -114 -149 -136 -220 -142 -457 l-5 -183 -157 0 c-149 0
-160 -1 -209 -26 -188 -94 -187 -355 3 -457 35 -19 59 -22 202 -25 l163 -4 0
-862 c0 -536 4 -884 10 -917 28 -149 148 -288 286 -329 l42 -12 4 -77 c7 -123
59 -208 153 -252 37 -17 72 -19 443 -19 339 0 408 2 439 15 100 42 152 121
160 246 l6 79 508 0 509 0 0 -57 c0 -118 50 -209 139 -255 l53 -28 407 0 c372
0 409 2 446 19 93 42 146 129 153 252 l4 77 42 12 c137 40 258 179 286 329 6
33 10 381 10 917 l0 862 163 4 c143 3 167 6 202 25 189 101 191 364 3 457 -49
25 -60 26 -209 26 l-157 0 -5 183 c-5 191 -12 225 -61 330 -158 333 -683 615
-1336 718 l-140 22 0 41 c0 90 -79 196 -191 256 -131 70 -348 91 -507 50z
m383 -180 c65 -25 145 -94 145 -126 0 -18 -14 -19 -340 -19 -315 0 -340 1
-340 17 0 25 57 86 102 109 75 38 137 49 258 45 90 -2 128 -8 175 -26z m255
-334 c456 -58 840 -181 1099 -353 118 -78 227 -190 274 -279 20 -40 37 -81 37
-93 l0 -21 -1860 0 -1860 0 0 21 c0 12 17 53 37 93 46 87 156 200 268 275 271
181 713 319 1150 361 61 5 126 12 145 14 80 9 601 -4 710 -18z m1430 -2119 c0
-1373 6 -1275 -83 -1362 -32 -31 -68 -55 -93 -63 -60 -18 -3348 -18 -3408 0
-25 8 -61 32 -93 63 -89 87 -83 -11 -83 1362 l0 1203 1880 0 1880 0 0 -1203z
m-3930 778 l0 -85 -141 0 -141 0 -29 29 c-31 31 -36 59 -17 94 22 43 37 46
186 47 l142 0 0 -85z m4401 72 c46 -35 50 -88 10 -128 l-29 -29 -141 0 -141 0
0 85 0 85 143 0 c96 -1 147 -5 158 -13z m-3031 -2511 c0 -44 -5 -60 -26 -85
l-26 -31 -377 0 -378 0 -22 24 c-15 15 -25 42 -28 70 -10 82 -45 76 432 76
l425 0 0 -54z m2215 -8 c0 -46 -5 -62 -24 -82 l-24 -26 -376 0 c-280 1 -380 4
-392 13 -27 21 -39 54 -39 106 l0 51 428 -2 427 -3 0 -57z"></path>
      <path d="M2503 3216 c-26 -23 -28 -29 -28 -99 0 -66 3 -79 24 -101 18 -19 35
-26 61 -26 26 0 43 7 61 26 21 22 24 35 24 101 0 70 -2 76 -28 99 -16 13 -41
24 -57 24 -16 0 -41 -11 -57 -24z"></path>
      <path d="M1615 2858 c-32 -17 -45 -39 -45 -76 0 -29 9 -44 53 -89 46 -45 60
-53 91 -53 48 0 86 36 86 81 0 26 -11 44 -58 91 -60 60 -86 69 -127 46z"></path>
      <path d="M3378 2812 c-47 -47 -58 -65 -58 -91 0 -45 38 -81 86 -81 31 0 45 8
91 53 44 45 53 60 53 90 0 27 -7 41 -31 61 -48 40 -74 34 -141 -32z"></path>
      <path d="M2455 2809 c-169 -18 -362 -100 -496 -213 -156 -130 -255 -289 -311
-497 -32 -120 -32 -317 1 -444 47 -182 132 -326 269 -456 97 -92 159 -133 282
-186 236 -102 524 -95 759 17 115 55 192 113 287 212 312 330 336 841 57 1206
-121 158 -309 285 -498 335 -56 15 -222 38 -255 36 -8 -1 -51 -5 -95 -10z m15
-464 c0 -329 4 -352 59 -374 25 -11 37 -11 62 0 55 22 59 45 59 374 l0 296 38
-7 c297 -53 537 -275 613 -569 28 -109 28 -270 0 -378 -28 -108 -98 -239 -172
-320 -294 -325 -787 -342 -1102 -39 -236 228 -298 591 -151 890 95 195 282
347 494 401 41 11 81 20 88 20 9 1 12 -64 12 -294z"></path>
    </g>
  </symbol>
  <symbol version="1.0" xmlns="http://www.w3.org/2000/svg" preserveAspectRatio="xMidYMid meet" viewBox="0 0 512.000000 512.000000" id="soda">
    <g transform="translate(0.000000,512.000000) scale(0.100000,-0.100000)" stroke="none">
      <path d="M3058 4950 c-267 -93 -505 -178 -528 -190 -101 -51 -175 -163 -191
-288 -4 -37 -8 -210 -9 -384 l0 -318 -447 0 c-373 -1 -451 -3 -467 -15 -12 -9
-47 -95 -91 -222 l-72 -208 -84 -6 c-96 -7 -131 -21 -182 -78 -82 -90 -76
-216 13 -303 54 -52 96 -68 183 -68 37 0 57 -4 57 -12 0 -20 290 -2751 296
-2786 2 -17 15 -41 26 -52 21 -20 36 -20 998 -20 962 0 977 0 998 20 11 11 24
35 26 52 6 35 296 2767 296 2786 0 8 21 12 56 12 85 0 133 18 184 70 88 88 94
206 14 298 -50 59 -85 74 -183 81 l-84 6 -72 208 c-44 127 -79 213 -91 222
-16 12 -94 14 -467 15 l-447 0 2 306 3 307 435 148 c239 82 446 155 460 162
13 7 31 25 40 40 14 25 12 35 -39 184 -55 164 -80 204 -124 202 -12 0 -241
-76 -509 -169z m490 -78 l21 -63 -22 -8 c-12 -5 -213 -75 -447 -155 -256 -88
-433 -155 -445 -167 -19 -19 -20 -35 -23 -364 l-3 -345 -69 0 -70 0 0 360 c0
336 1 363 19 398 44 85 61 94 437 223 192 67 399 138 459 159 61 21 113 35
116 31 4 -3 16 -34 27 -69z m110 -1402 l50 -150 -1052 0 c-1050 0 -1053 0
-1080 -21 -36 -28 -36 -80 0 -108 27 -21 28 -21 1221 -21 l1194 0 24 -25 c14
-13 25 -36 25 -50 0 -14 -11 -37 -25 -50 l-24 -25 -1431 0 -1431 0 -24 25
c-14 13 -25 36 -25 50 0 14 11 37 25 50 22 23 31 25 125 25 91 0 103 2 123 23
13 13 49 101 91 225 l69 202 1047 0 1048 0 50 -150z m69 -647 c-4 -27 -67
-628 -142 -1338 -75 -710 -138 -1300 -141 -1312 l-4 -23 -880 0 -880 0 -4 23
c-3 12 -66 602 -141 1312 -75 710 -138 1311 -142 1338 l-6 47 1173 0 1173 0
-6 -47z"></path>
    </g>
  </symbol>
  <symbol version="1.0" xmlns="http://www.w3.org/2000/svg" preserveAspectRatio="xMidYMid meet" viewBox="0 0 512.000000 512.000000" id="team">
    <g transform="translate(0.000000,512.000000) scale(0.100000,-0.100000)" stroke="none">
      <path d="M2517 4949 c-11 -6 -25 -25 -32 -43 -12 -29 -18 -32 -88 -43 -221
-35 -468 -202 -585 -397 -94 -155 -132 -297 -132 -495 l0 -129 -29 -10 c-42
-15 -55 -45 -47 -110 8 -65 56 -162 99 -198 16 -14 53 -37 81 -52 l51 -27 725
0 725 0 51 27 c28 15 65 38 81 52 45 38 92 134 99 204 6 56 5 62 -19 86 -14
14 -33 26 -42 26 -13 0 -15 18 -15 113 0 181 -26 302 -97 444 -78 157 -229
307 -385 386 -79 39 -233 87 -279 87 -23 0 -31 7 -43 34 -21 52 -74 71 -119
45z m175 -243 c290 -56 518 -283 574 -572 8 -42 14 -125 14 -185 l0 -109 -720
0 -720 0 0 128 c0 156 20 245 81 365 56 108 191 245 294 298 160 83 312 106
477 75z m638 -1035 c0 -6 -17 -23 -37 -38 l-36 -28 -697 0 -697 0 -36 28 c-20
15 -37 32 -37 38 0 5 291 9 770 9 479 0 770 -4 770 -9z"></path>
      <path d="M2505 4615 c-51 -51 -15 -135 58 -135 156 0 323 -97 407 -236 38 -63
69 -165 69 -232 2 -83 82 -122 138 -66 25 25 26 30 20 103 -22 280 -225 512
-504 575 -106 24 -158 21 -188 -9z"></path>
      <path d="M660 3344 c-146 -31 -305 -139 -388 -264 -45 -67 -86 -168 -102 -252
l-11 -58 -29 15 c-42 22 -77 18 -105 -10 -33 -32 -33 -78 0 -110 l24 -25 -24
-25 c-33 -32 -33 -78 0 -110 28 -29 63 -32 105 -10 l30 16 0 -48 c1 -178 108
-384 256 -491 61 -45 64 -49 64 -88 l0 -42 -122 -4 c-105 -3 -130 -8 -173 -28
-63 -31 -124 -91 -155 -155 -24 -49 -25 -57 -28 -307 l-3 -258 25 -25 25 -25
751 0 751 0 25 25 25 26 -3 257 -3 257 -36 65 c-67 123 -161 170 -335 170
l-104 0 0 43 c0 40 3 44 67 92 123 92 219 249 242 396 16 97 13 401 -4 484
-49 232 -236 425 -471 485 -90 23 -199 25 -294 4z m255 -159 c172 -45 305
-179 350 -352 8 -31 15 -70 15 -85 l0 -28 -480 0 -480 0 0 28 c0 91 59 221
137 303 118 124 295 176 458 134z m365 -684 c0 -144 -46 -259 -142 -355 -192
-191 -483 -192 -674 -1 -96 95 -144 211 -144 347 l0 68 480 0 480 0 0 -59z
m-480 -656 c41 0 94 3 118 8 40 7 42 6 42 -18 0 -21 -12 -31 -80 -65 l-80 -40
-80 40 c-68 34 -80 44 -80 65 0 24 2 25 43 18 23 -5 76 -8 117 -8z m-225 -182
c19 -9 35 -19 35 -22 0 -3 -24 -19 -54 -34 -30 -16 -58 -39 -65 -53 -7 -15
-11 -88 -11 -189 l0 -165 -160 0 -160 0 0 174 c0 181 6 214 43 255 39 42 73
50 209 51 99 0 135 -4 163 -17z m791 -9 c66 -49 69 -58 72 -265 l3 -189 -400
0 -401 0 0 135 0 135 208 105 207 105 142 -3 c125 -2 145 -4 169 -23z"></path>
      <path d="M4162 3340 c-177 -47 -332 -172 -411 -330 -59 -120 -71 -190 -71
-410 0 -214 12 -286 64 -393 47 -96 110 -174 190 -233 63 -47 66 -51 66 -90
l0 -42 -122 -4 c-105 -3 -130 -8 -173 -28 -63 -31 -124 -91 -155 -155 -24 -49
-25 -57 -28 -307 l-3 -258 25 -25 25 -25 751 0 751 0 25 25 25 26 -3 257 -3
257 -36 65 c-67 123 -161 170 -335 170 l-104 0 0 43 c0 41 3 44 64 89 148 107
255 313 256 491 l0 48 30 -16 c42 -22 77 -19 105 10 33 32 33 78 0 110 l-24
25 24 25 c16 15 25 36 25 55 0 38 -39 80 -75 80 -14 0 -39 -7 -55 -15 -33 -17
-28 -26 -49 81 -14 71 -53 155 -106 229 -150 210 -424 310 -673 245z m273
-155 c172 -45 305 -179 350 -352 8 -31 15 -70 15 -85 l0 -28 -480 0 -480 0 0
28 c0 91 59 221 137 303 118 124 295 176 458 134z m365 -693 c0 -137 -48 -251
-146 -349 -188 -189 -480 -188 -672 3 -96 96 -142 211 -142 355 l0 59 480 0
480 0 0 -68z m-480 -647 c41 0 94 3 118 8 40 7 42 6 42 -18 0 -21 -12 -31 -80
-65 l-80 -40 -80 40 c-68 34 -80 44 -80 65 0 24 2 25 43 18 23 -5 76 -8 117
-8z m-225 -182 c19 -9 35 -19 35 -22 0 -3 -24 -19 -54 -34 -30 -16 -58 -39
-65 -53 -7 -15 -11 -88 -11 -189 l0 -165 -160 0 -160 0 0 174 c0 181 6 214 43
255 39 42 73 50 209 51 99 0 135 -4 163 -17z m791 -9 c66 -49 69 -58 72 -265
l3 -189 -400 0 -401 0 0 135 0 135 208 105 207 105 142 -3 c125 -2 145 -4 169
-23z"></path>
      <path d="M2443 3185 c-73 -20 -147 -59 -197 -105 l-42 -39 -224 -3 c-216 -3
-227 -4 -275 -28 -240 -119 -247 -449 -12 -569 l67 -34 0 -324 c0 -361 7 -421
64 -553 59 -140 165 -269 283 -348 l53 -35 0 -53 0 -54 -108 0 c-182 0 -297
-45 -400 -155 -110 -117 -135 -206 -130 -457 3 -182 7 -194 72 -242 27 -21 34
-21 964 -21 l937 0 34 24 c60 43 71 84 70 266 0 241 -37 345 -159 458 -100 92
-206 127 -381 127 l-99 0 0 54 c0 52 1 54 43 81 55 37 160 138 202 195 47 64
100 174 126 261 21 69 23 98 26 426 l5 352 52 24 c65 30 117 81 153 150 24 45
28 63 27 137 0 72 -4 93 -26 136 -39 75 -70 107 -140 145 l-63 34 -225 3 -225
4 -41 38 c-110 101 -286 144 -431 105z m255 -179 c27 -14 63 -36 79 -50 46
-39 92 -134 100 -207 5 -47 12 -69 29 -86 32 -31 78 -30 111 3 24 24 25 30 19
94 -3 38 -11 81 -16 95 l-10 26 164 -3 c148 -3 167 -5 192 -24 53 -39 69 -71
69 -134 0 -90 -49 -144 -145 -159 -87 -14 -90 -21 -90 -227 l0 -174 -640 0
-640 0 0 174 c0 206 -3 213 -90 227 -96 15 -145 69 -145 159 0 63 16 95 69
134 25 19 44 21 190 24 l163 3 -13 -53 c-31 -117 -6 -188 66 -188 49 0 76 35
83 108 15 138 108 248 242 283 54 15 159 2 213 -25z m500 -1143 c-5 -113 -10
-153 -32 -220 -147 -453 -721 -591 -1056 -254 -134 135 -190 279 -190 493 l0
118 641 0 642 0 -5 -137z m-785 -808 c98 -19 188 -19 292 0 44 8 83 15 88 15
4 0 7 -12 7 -28 0 -26 -6 -30 -113 -70 -63 -23 -120 -42 -127 -42 -8 0 -65 19
-127 43 -106 39 -113 44 -113 70 0 32 -6 31 93 12z m-142 -192 c27 -10 49 -20
49 -23 0 -3 -17 -12 -37 -19 -72 -25 -100 -42 -112 -67 -7 -16 -11 -98 -11
-229 l0 -205 -240 0 -240 0 0 143 c0 93 5 160 14 189 29 96 107 177 206 211
66 24 305 23 371 0z m980 -14 c69 -33 124 -88 158 -159 24 -51 26 -67 29 -212
l4 -158 -561 0 -561 0 0 173 0 172 283 107 282 107 155 -2 c144 -2 159 -4 211
-28z"></path>
      <path d="M2439 627 c-44 -34 -47 -89 -7 -127 47 -44 128 -6 128 60 0 60 -76
102 -121 67z"></path>
    </g>
  </symbol>
  <symbol version="1.0" xmlns="http://www.w3.org/2000/svg" preserveAspectRatio="xMidYMid meet" viewBox="0 0 512.000000 512.000000" id="telephone">
    <g transform="translate(0.000000,512.000000) scale(0.100000,-0.100000)" stroke="none">
      <path d="M916 5105 c-81 -21 -164 -67 -249 -140 -94 -81 -431 -424 -486 -495
-223 -285 -227 -728 -11 -1300 263 -699 756 -1407 1380 -1982 860 -793 2012
-1306 2605 -1162 88 21 234 89 301 140 68 51 520 515 562 576 78 113 108 264
78 392 -34 143 -45 156 -480 592 -439 439 -453 450 -598 480 -115 24 -232 3
-345 -62 -26 -16 -150 -129 -275 -253 l-227 -224 -73 38 c-179 93 -311 182
-508 344 -202 166 -484 457 -640 661 -113 148 -279 421 -280 458 0 7 78 89
173 182 200 195 279 286 324 372 56 109 67 247 28 361 -39 116 -77 160 -459
543 -378 378 -436 428 -544 465 -75 27 -199 33 -276 14z m232 -281 c28 -16
188 -167 403 -383 389 -390 404 -408 403 -511 0 -91 -24 -123 -285 -384 -132
-131 -247 -252 -255 -269 -12 -21 -15 -50 -12 -99 3 -60 11 -83 72 -204 138
-274 320 -515 621 -823 299 -306 597 -534 904 -692 109 -56 130 -64 180 -63
34 0 70 7 91 18 19 10 143 126 275 257 170 169 253 244 285 258 60 27 138 27
193 0 60 -30 767 -736 798 -798 17 -33 24 -63 24 -106 0 -103 -21 -131 -305
-416 -281 -282 -307 -301 -457 -335 -145 -32 -388 -6 -634 67 -375 111 -879
377 -1294 683 -799 588 -1485 1487 -1770 2318 -136 395 -151 678 -47 888 32
67 62 101 270 312 128 130 251 248 272 263 90 62 182 69 268 19z"></path>
    </g>
  </symbol>
  <symbol version="1.0" id="medal" xmlns="http://www.w3.org/2000/svg" xmlns:xlink="http://www.w3.org/1999/xlink" enable-background="new 0 0 64 64" xml:space="preserve" viewBox="0 0 64 64">
    <g>
      <path fill="#231F20" d="M54,22C54,9.869,44.131,0,32,0S10,9.869,10,22c0,6.816,3.117,12.92,8,16.958V62
		c0,0.758,0.428,1.45,1.105,1.789C19.388,63.931,19.694,64,19.998,64c0.426,0,0.848-0.136,1.202-0.4L32,55.5l10.8,8.1
		c0.354,0.265,0.775,0.4,1.2,0.4c0.305,0,0.611-0.069,0.895-0.211C45.572,63.45,46,62.758,46,62V38.958
		C50.883,34.92,54,28.816,54,22z M20,62V40.425c0.645,0.421,1.312,0.809,2,1.161V60.5L20,62z M32,53l-8,6V42.487
		C26.481,43.46,29.178,44,32,44s5.519-0.54,8-1.513V59L32,53z M44,62l-2-1.5V41.586c0.688-0.353,1.355-0.74,2-1.161V62z M32,42
		c-11.028,0-20-8.972-20-20S20.972,2,32,2s20,8.972,20,20S43.028,42,32,42z"></path>
      <path fill="#231F20" d="M32,4c-9.925,0-18,8.075-18,18s8.075,18,18,18s18-8.075,18-18S41.925,4,32,4z M32,38
		c-8.822,0-16-7.178-16-16S23.178,6,32,6s16,7.178,16,16S40.822,38,32,38z"></path>
      <path fill="#231F20" d="M39.147,19.361l-4.309-0.658l-1.936-4.123c-0.165-0.352-0.518-0.575-0.905-0.575s-0.74,0.224-0.905,0.575
		l-1.936,4.123l-4.309,0.658c-0.37,0.057-0.678,0.315-0.797,0.671s-0.029,0.747,0.232,1.016l3.146,3.227l-0.745,4.564
		c-0.062,0.378,0.099,0.758,0.411,0.979s0.725,0.243,1.061,0.058l3.841-2.124l3.841,2.124C35.99,29.959,36.157,30,36.323,30
		c0.202,0,0.404-0.062,0.576-0.183c0.312-0.221,0.473-0.601,0.411-0.979l-0.745-4.564l3.146-3.227
		c0.262-0.269,0.352-0.66,0.232-1.016S39.518,19.418,39.147,19.361z M34.781,23.239c-0.222,0.228-0.322,0.546-0.271,0.859
		l0.495,3.029l-2.522-1.395c-0.151-0.083-0.317-0.125-0.484-0.125s-0.333,0.042-0.484,0.125l-2.522,1.395l0.495-3.029
		c0.051-0.313-0.05-0.632-0.271-0.859l-2.141-2.194l2.913-0.445c0.329-0.05,0.612-0.261,0.754-0.563l1.257-2.678l1.257,2.678
		c0.142,0.303,0.425,0.514,0.754,0.563l2.913,0.445L34.781,23.239z"></path>
    </g>
  </symbol>
  <symbol version="1.0" xmlns="http://www.w3.org/2000/svg" preserveAspectRatio="xMidYMid meet" viewBox="0 0 512.000000 512.000000" id="user">
    <g transform="translate(0.000000,512.000000) scale(0.100000,-0.100000)" stroke="none">
      <path d="M2435 5114 c-16 -2 -65 -9 -109 -15 -246 -33 -541 -172 -741 -349
-253 -223 -432 -545 -486 -875 -20 -120 -17 -390 5 -500 71 -361 275 -695 550
-903 l68 -52 -28 -10 c-121 -46 -173 -69 -276 -120 -444 -223 -805 -560 -1062
-990 -210 -352 -328 -745 -352 -1180 l-7 -120 201 0 202 0 0 49 c0 339 141
807 330 1095 291 445 681 750 1156 905 452 148 896 148 1348 0 475 -155 865
-460 1156 -905 189 -288 330 -756 330 -1095 l0 -49 202 0 201 0 -7 120 c-24
435 -142 828 -352 1180 -257 430 -618 767 -1062 990 -103 51 -155 74 -276 120
l-28 10 68 52 c275 208 479 542 550 903 22 110 25 380 5 500 -43 263 -176 542
-352 742 -219 247 -527 421 -848 479 -77 14 -332 26 -386 18z m294 -409 c588
-96 990 -650 896 -1234 -96 -588 -650 -990 -1234 -896 -588 96 -990 650 -896
1234 96 588 650 990 1234 896z"></path>
    </g>
  </symbol>
  <symbol xmlns="http://www.w3.org/2000/svg" viewBox="0 0 24 24" id="leftchevron">
    <path fill-rule="evenodd" clip-rule="evenodd" d="M15.7071 4.29289C16.0976 4.68342 16.0976 5.31658 15.7071 5.70711L9.41421 12L15.7071 18.2929C16.0976 18.6834 16.0976 19.3166 15.7071 19.7071C15.3166 20.0976 14.6834 20.0976 14.2929 19.7071L7.29289 12.7071C7.10536 12.5196 7 12.2652 7 12C7 11.7348 7.10536 11.4804 7.29289 11.2929L14.2929 4.29289C14.6834 3.90237 15.3166 3.90237 15.7071 4.29289Z"></path>
  </symbol>
  <symbol xmlns="http://www.w3.org/2000/svg" viewBox="0 0 24 24" id="rightchevron">
    <path fill-rule="evenodd" clip-rule="evenodd" d="M8.29289 4.29289C8.68342 3.90237 9.31658 3.90237 9.70711 4.29289L16.7071 11.2929C17.0976 11.6834 17.0976 12.3166 16.7071 12.7071L9.70711 19.7071C9.31658 20.0976 8.68342 20.0976 8.29289 19.7071C7.90237 19.3166 7.90237 18.6834 8.29289 18.2929L14.5858 12L8.29289 5.70711C7.90237 5.31658 7.90237 4.68342 8.29289 4.29289Z"></path>
  </symbol>
  <symbol fill="none" xmlns="http://www.w3.org/2000/svg" viewBox="0 0 193 30" id="stars">
    <g clip-path="url(#clip0_1102:21717)">
      <path d="M15.2661 24.6484C15.8298 24.3163 16.5294 24.3163 17.0931 24.6484L22.5299 27.8507C23.898 28.6565 25.5633 27.4254 25.1941 25.8812L23.7827 19.9783C23.6247 19.3174 23.8524 18.6239 24.3713 18.1851L29.0358 14.2419C30.2611 13.206 29.6212 11.2057 28.0222 11.0734L21.7997 10.5584C21.1387 10.5037 20.5614 10.0899 20.2971 9.4816L17.8306 3.80269C17.2035 2.3588 15.1557 2.3588 14.5286 3.80269L12.0621 9.4816C11.7979 10.0899 11.2205 10.5037 10.5595 10.5584L4.337 11.0734C2.73796 11.2057 2.09807 13.206 3.3234 14.2419L7.98788 18.1851C8.50683 18.6238 8.73448 19.3174 8.57645 19.9783L7.16507 25.8812C6.79585 27.4254 8.46122 28.6565 9.82925 27.8507L15.2661 24.6484Z" fill="#ffbe17"></path>
      <path d="M55.4262 24.6469C55.99 24.3149 56.6895 24.3149 57.2533 24.6469L62.6901 27.8493C64.0581 28.6551 65.7235 27.4239 65.3543 25.8797L63.9429 19.9769C63.7849 19.316 64.0125 18.6224 64.5315 18.1837L69.196 14.2404C70.4213 13.2045 69.7814 11.2043 68.1824 11.0719L61.9598 10.5569C61.2988 10.5022 60.7215 10.0885 60.4573 9.48013L57.9908 3.80123C57.3636 2.35734 55.3159 2.35734 54.6888 3.80123L52.2222 9.48013C51.958 10.0885 51.3807 10.5022 50.7197 10.5569L44.4972 11.0719C42.8981 11.2043 42.2582 13.2045 43.4836 14.2404L48.148 18.1837C48.667 18.6224 48.8946 19.316 48.7366 19.9769L47.3252 25.8797C46.956 27.4239 48.6214 28.6551 49.9894 27.8493L55.4262 24.6469Z" fill="#ffbe17"></path>
      <path d="M95.5864 24.6469C96.1501 24.3149 96.8497 24.3149 97.4134 24.6469L102.85 27.8493C104.218 28.6551 105.884 27.4239 105.514 25.8797L104.103 19.9769C103.945 19.316 104.173 18.6224 104.692 18.1837L109.356 14.2404C110.581 13.2045 109.942 11.2043 108.343 11.0719L102.12 10.5569C101.459 10.5022 100.882 10.0885 100.617 9.48013L98.1509 3.80123C97.5238 2.35734 95.476 2.35734 94.8489 3.80123L92.3824 9.48013C92.1182 10.0885 91.5408 10.5022 90.8799 10.5569L84.6573 11.0719C83.0583 11.2043 82.4184 13.2045 83.6437 14.2404L88.3082 18.1837C88.8271 18.6224 89.0548 19.316 88.8968 19.9769L87.4854 25.8797C87.1162 27.4239 88.7815 28.6551 90.1496 27.8493L95.5864 24.6469Z" fill="#ffbe17"></path>
      <path d="M135.747 24.6469C136.311 24.3149 137.01 24.3149 137.574 24.6469L143.011 27.8493C144.379 28.6551 146.044 27.4239 145.675 25.8797L144.264 19.9769C144.106 19.316 144.333 18.6224 144.852 18.1837L149.517 14.2404C150.742 13.2045 150.102 11.2043 148.503 11.0719L142.281 10.5569C141.62 10.5022 141.042 10.0885 140.778 9.48013L138.312 3.80123C137.684 2.35734 135.637 2.35734 135.01 3.80123L132.543 9.48013C132.279 10.0885 131.701 10.5022 131.041 10.5569L124.818 11.0719C123.219 11.2043 122.579 13.2045 123.804 14.2404L128.469 18.1837C128.988 18.6224 129.215 19.316 129.057 19.9769L127.646 25.8797C127.277 27.4239 128.942 28.6551 130.31 27.8493L135.747 24.6469Z" fill="#ffbe17"></path>
      <path d="M175.907 24.6469C176.471 24.3149 177.17 24.3149 177.734 24.6469L183.171 27.8493C184.539 28.6551 186.204 27.4239 185.835 25.8797L184.424 19.9769C184.266 19.316 184.493 18.6224 185.012 18.1837L189.677 14.2404C190.902 13.2045 190.262 11.2043 188.663 11.0719L182.441 10.5569C181.78 10.5022 181.202 10.0885 180.938 9.48013L178.472 3.80123C177.845 2.35734 175.797 2.35734 175.17 3.80123L172.703 9.48013C172.439 10.0885 171.862 10.5022 171.201 10.5569L164.978 11.0719C163.379 11.2043 162.739 13.2045 163.965 14.2404L168.629 18.1837C169.148 18.6224 169.376 19.316 169.218 19.9769L167.806 25.8797C167.437 27.4239 169.102 28.6551 170.47 27.8493L175.907 24.6469Z" fill="#ffbe17"></path>
    </g>
    <defs>
      <clipPath id="clip0_1102:21717">
        <rect width="193" height="30" fill="white"></rect>
      </clipPath>
    </defs>
  </symbol>
  <symbol version="1.1" xmlns="http://www.w3.org/2000/svg" xmlns:xlink="http://www.w3.org/1999/xlink" xmlnsSketch="http://www.bohemiancoding.com/sketch/ns" viewBox="0 -1 20 20" id="menu">
    <defs></defs>
    <g id="Page-1" stroke="none" stroke-width="1" fill="none" fill-rule="evenodd" sketchType="MSPage">
      <g id="Icon-Set" sketchType="MSLayerGroup" transform="translate(-210.000000, -887.000000)" fill="#ffffff">
        <path d="M229,895 L211,895 C210.448,895 210,895.448 210,896 C210,896.553 210.448,897 211,897 L229,897 C229.552,897 230,896.553 230,896 C230,895.448 229.552,895 229,895 L229,895 Z M229,903 L211,903 C210.448,903 210,903.448 210,904 C210,904.553 210.448,905 211,905 L229,905 C229.552,905 230,904.553 230,904 C230,903.448 229.552,903 229,903 L229,903 Z M211,889 L229,889 C229.552,889 230,888.553 230,888 C230,887.448 229.552,887 229,887 L211,887 C210.448,887 210,887.448 210,888 C210,888.553 210.448,889 211,889 L211,889 Z" id="hamburgercollapsible" sketchType="MSShapeGroup"></path>
      </g>
    </g>
  </symbol>
</svg>
